PathFileType	4	(X/Y/Z)	/Users/itak/Documents/Research/Walk-IL/dataset/trc/00423_00012.trc
DataRate	CameraRate	NumFrames	NumMarkers	Units	OrigDataRate	OrigDataStartFrame	OrigNumFrames
100.000000	100.000000	4	53	mm	100.000000	350	560
Frame#	Time	RPSI			LPSI			L3			STRN			T10			C7			CLAV			RBAK			LBAK			LSHO			LUPA			LAEL			LAOL			LWTS			LWPS			LFRA			LHPS			LHTS			RSHO			RUPA			RAEL			RAOL			RWTS			RWPS			RFRA			RIFD			RHTS			RHPS			RBHD			LFHD			RFHD			LBHD			LHIP			RHIP			RASI			LASI			LKNE			LTHI			LANK			LTIP			LTOE			LMT1			LMT5			LHEE			RKNE			RTHI			RANK			RTIP			RTOE			RMT1			RMT5			RHEE			LIFD			
		X1	Y1	Z1	X2	Y2	Z2	X3	Y3	Z3	X4	Y4	Z4	X5	Y5	Z5	X6	Y6	Z6	X7	Y7	Z7	X8	Y8	Z8	X9	Y9	Z9	X10	Y10	Z10	X11	Y11	Z11	X12	Y12	Z12	X13	Y13	Z13	X14	Y14	Z14	X15	Y15	Z15	X16	Y16	Z16	X17	Y17	Z17	X18	Y18	Z18	X19	Y19	Z19	X20	Y20	Z20	X21	Y21	Z21	X22	Y22	Z22	X23	Y23	Z23	X24	Y24	Z24	X25	Y25	Z25	X26	Y26	Z26	X27	Y27	Z27	X28	Y28	Z28	X29	Y29	Z29	X30	Y30	Z30	X31	Y31	Z31	X32	Y32	Z32	X33	Y33	Z33	X34	Y34	Z34	X35	Y35	Z35	X36	Y36	Z36	X37	Y37	Z37	X38	Y38	Z38	X39	Y39	Z39	X40	Y40	Z40	X41	Y41	Z41	X42	Y42	Z42	X43	Y43	Z43	X44	Y44	Z44	X45	Y45	Z45	X46	Y46	Z46	X47	Y47	Z47	X48	Y48	Z48	X49	Y49	Z49	X50	Y50	Z50	X51	Y51	Z51	X52	Y52	Z52	X53	Y53	Z53	

351	3.5	-27.40825080871582	937.9853515625	-142.9169769287109	76.20163726806641	924.572021484375	-224.8966979980469	29.69339942932129	1019.154357910156	-181.6246185302734	143.4952392578125	1177.26171875	4.819189071655273	33.41291046142578	1114.013305664062	-208.9889831542969	49.00308990478516	1364.127197265625	-197.0736846923828	110.2867584228516	1292.90625	-47.19868850708008	-21.30287933349609	1212.510620117188	-204.3966369628906	140.3757476806641	1332.697631835938	-250.3851928710938	218.1322326660156	1355.830932617188	-188.8867797851562	284.1450805664062	1242.073608398438	-229.9469757080078	335.7015686035156	1050.588623046875	-202.6480102539062	261.7777709960938	1018.506286621094	-233.5824890136719	353.8800964355469	862.8507690429688	-63.57162094116211	398.2288208007812	841.0275268554688	-129.7151031494141	363.5052185058594	953.2907104492188	-175.0209350585938	407.6636657714844	762.2384643554688	-95.09217071533203	392.3056945800781	775.25927734375	-33.86722564697266	-71.73519134521484	1337.627319335938	-82.28997802734375	-127.1627349853516	1273.025146484375	-80.21315002441406	-166.7108764648438	1015.740112304688	-101.5163879394531	-78.02568054199219	1006.622009277344	-133.6721343994141	-134.4183044433594	784.45654296875	-9.979784965515137	-200.0088653564453	783.6121826171875	-41.54330062866211	-184.5012817382812	949.9353637695312	-82.56674194335938	-143.2629241943359	613.9299926757812	-50.14395523071289	-151.9197540283203	676.9300537109375	-12.07783508300781	-201.4081878662109	693.0130004882812	-57.39783096313477	-31.65519523620605	1540.22900390625	-149.6852264404297	139.0130615234375	1574.519287109375	-56.80643463134766	21.67752838134766	1565.88916015625	-28.60430335998535	117.8335800170898	1547.953247070312	-202.3587799072266	219.9786071777344	914.3861083984375	-223.7570343017578	-64.40538024902344	925.0568237304688	-3.709704160690308	60.89845275878906	938.2249145507812	63.71329498291016	258.7353210449219	917.8624267578125	-108.8374481201172	286.4609375	432.9679260253906	-163.8643798828125	274.6182861328125	567.5955200195312	-170.0322875976562	62.24444580078125	213.1860198974609	-491.4109497070312	185.9196319580078	307.5012512207031	-335.7441101074219	50.89090347290039	33.63337326049805	-369.2210693359375	14.42179107666016	105.1827621459961	-381.4039001464844	85.25589752197266	91.4534912109375	-457.0384521484375	10.83255958557129	250.3655395507812	-469.306396484375	112.1660003662109	454.8147888183594	79.81119537353516	26.62602615356445	706.9303588867188	85.39813232421875	176.0319213867188	48.70084762573242	0.3580118715763092	152.0135345458984	331.3533325195312	78.51593780517578	305.3533935546875	34.62724685668945	139.77880859375	303.6394348144531	38.53632736206055	56.88558578491211	205.2713317871094	43.29677963256836	77.50554656982422	194.8847808837891	37.6035270690918	-87.31472015380859	380.8245849609375	689.7640991210938	-30.95043182373047	
352	3.51	-22.01222038269043	939.8773193359375	-135.8745574951172	82.44276428222656	925.8470458984375	-216.8736419677734	35.48156356811523	1020.5908203125	-174.0288848876953	149.0477905273438	1178.863159179688	13.33839511871338	39.08588027954102	1115.87548828125	-201.1535491943359	55.39538955688477	1365.9423828125	-188.8791961669922	116.2344284057617	1294.495483398438	-38.89955139160156	-15.62049579620361	1214.533813476562	-196.2732391357422	146.8705444335938	1334.22802734375	-241.8964233398438	224.5355377197266	1357.11376953125	-180.2523956298828	290.2408752441406	1243.14990234375	-221.2021789550781	340.8483276367188	1051.362548828125	-194.4042358398438	266.78662109375	1019.756286621094	-225.3886566162109	357.0471496582031	858.8728637695312	-60.43223190307617	401.027587890625	838.90087890625	-127.3708267211914	367.7070922851562	952.8761596679688	-168.7947540283203	409.51806640625	758.8173217773438	-95.65989685058594	394.3008728027344	769.6869506835938	-33.98210144042969	-65.54708862304688	1339.808959960938	-74.09194946289062	-121.2233963012695	1274.968139648438	-71.46055603027344	-160.8846893310547	1017.158569335938	-88.75279998779297	-72.87957000732422	1007.899047851562	-122.654670715332	-124.5257263183594	787.9796142578125	6.521082878112793	-191.1618499755859	785.9793701171875	-23.20194435119629	-177.3206024169922	951.3482055664062	-68.11277770996094	-133.5464019775391	616.437744140625	-28.80424499511719	-142.3453979492188	679.5311279296875	8.288753509521484	-192.1749114990234	694.8591918945312	-36.78449249267578	-25.38863945007324	1541.879272460938	-142.07373046875	144.9187316894531	1576.4208984375	-48.42905807495117	27.46164703369141	1567.831176757812	-20.71485900878906	124.4161376953125	1549.575439453125	-193.99853515625	226.1554260253906	915.57421875	-214.1866912841797	-60.2974853515625	927.189208984375	3.219909429550171	64.35695648193359	939.7908325195312	71.65402221679688	263.7492980957031	919.6688232421875	-98.47255706787109	299.23046875	435.4472961425781	-142.5520782470703	285.4324340820312	569.50537109375	-152.3463745117188	79.80577850341797	215.5895690917969	-473.2929382324219	201.7351837158203	309.9408569335938	-315.69482421875	74.81549835205078	35.00423431396484	-351.6202392578125	35.40840530395508	105.6830139160156	-363.7313537597656	107.3457489013672	95.34255981445312	-438.84765625	26.97456741333008	250.9626922607422	-451.6809997558594	112.2973709106445	454.3176574707031	82.26136779785156	28.73360633850098	707.3509521484375	90.88874053955078	175.9141845703125	48.5886344909668	0.3435870707035065	151.8004302978516	330.7652282714844	80.19121551513672	305.1941223144531	34.68042373657227	139.7962036132812	303.4190368652344	38.60610961914062	56.91128158569336	204.9895477294922	43.15195083618164	77.53540802001953	194.8152465820312	37.6655158996582	-87.35672760009766	381.8325500488281	684.3250122070312	-34.33415603637695	
353	3.52	-16.56290626525879	941.7803344726562	-129.2004241943359	88.89180755615234	927.3137817382812	-209.0057830810547	41.27243423461914	1022.086059570312	-166.6999664306641	154.4051513671875	1180.623046875	21.7564582824707	44.79531860351562	1117.799438476562	-193.5011901855469	61.71402359008789	1367.83251953125	-180.8111724853516	122.0190734863281	1296.237426757812	-30.73045349121094	-10.00907516479492	1216.662963867188	-188.3389739990234	153.269775390625	1335.835815429688	-233.4849243164062	230.8353729248047	1358.508544921875	-171.7093963623047	296.2144775390625	1244.371459960938	-212.6253662109375	345.7362976074219	1052.2666015625	-186.5081329345703	271.4903869628906	1021.168823242188	-217.4756011962891	359.9817199707031	855.3209228515625	-57.6284065246582	403.6303100585938	837.1944580078125	-125.2899856567383	371.6706237792969	952.7369995117188	-162.9270782470703	411.2441101074219	755.9721069335938	-96.47007751464844	396.141357421875	764.7092895507812	-34.42298126220703	-59.50474548339844	1342.090576171875	-66.10701751708984	-115.4279327392578	1277.064697265625	-62.89616394042969	-155.2965698242188	1018.830017089844	-76.06027221679688	-68.01235198974609	1009.310546875	-111.7077407836914	-114.8015747070312	791.8779296875	23.24691963195801	-182.4101409912109	788.7156372070312	-4.747823238372803	-170.306884765625	953.0445556640625	-53.64022827148438	-123.9509582519531	619.4843139648438	-7.009490966796875	-132.6800079345703	682.932861328125	28.86598777770996	-183.1082611083984	697.25048828125	-15.75602245330811	-19.13077354431152	1543.70166015625	-134.4571838378906	150.8118591308594	1578.302978515625	-40.04046630859375	33.25307846069336	1569.826782226562	-12.80645084381104	130.96875	1551.310180664062	-185.6400146484375	232.5556640625	917.1072387695312	-204.4874572753906	-56.47626876831055	929.3023071289062	9.560683250427246	67.37485504150391	941.4664306640625	79.40827941894531	268.6877746582031	921.7645263671875	-87.86251831054688	311.3635864257812	438.5389709472656	-121.2259674072266	295.9150695800781	571.9176025390625	-134.6157684326172	97.42854309082031	216.7014465332031	-454.2706909179688	217.2083129882812	312.2537231445312	-295.2372131347656	99.91471862792969	36.21437835693359	-332.1685791015625	57.12884902954102	105.2448577880859	-344.6100158691406	130.2051239013672	98.47003173828125	-419.0992736816406	43.05478286743164	250.0400238037109	-433.3826599121094	112.1615829467773	453.8875732421875	84.38261413574219	30.64572525024414	707.8627319335938	96.09577941894531	175.7654876708984	48.46310043334961	0.3402191698551178	151.4001007080078	330.2765502929688	81.5985107421875	305.0284729003906	34.71420669555664	139.8042449951172	303.1959533691406	38.69411087036133	56.95418167114258	204.672119140625	42.99522399902344	77.56961059570312	194.7263336181641	37.74023818969727	-87.3897705078125	382.7477722167969	679.5875854492188	-37.99630737304688	
354	3.53	-11.02794933319092	943.6553955078125	-122.877326965332	95.55921173095703	928.9011840820312	-201.2792205810547	47.08740615844727	1023.613403320312	-159.635498046875	159.5275115966797	1182.516235351562	30.09379196166992	50.57559204101562	1119.7587890625	-186.0009002685547	67.96049499511719	1369.767211914062	-172.8632049560547	127.6219863891602	1298.117797851562	-22.66983795166016	-4.435427665710449	1218.857788085938	-180.5859680175781	159.5811157226562	1337.496826171875	-225.1291961669922	237.040771484375	1359.99853515625	-163.2220764160156	302.0880737304688	1245.7255859375	-204.1810760498047	350.3896789550781	1053.284057617188	-178.9847564697266	275.9151306152344	1022.736450195312	-209.8692474365234	362.70166015625	852.2098388671875	-55.10415649414062	406.0694885253906	835.890380859375	-123.4030456542969	375.4262084960938	952.8533935546875	-157.4088439941406	412.8576049804688	753.67919921875	-97.41462707519531	397.8243713378906	760.33251953125	-35.08982849121094	-53.61455917358398	1344.4423828125	-58.36713790893555	-109.7784652709961	1279.288452148438	-54.55944442749023	-149.9496154785156	1020.748596191406	-63.49979782104492	-63.4099235534668	1010.833251953125	-100.8426971435547	-105.300651550293	796.1691284179688	40.12089538574219	-173.7888641357422	791.837646484375	13.74700164794922	-163.5341033935547	955.0311889648438	-39.23504638671875	-114.4401550292969	623.1001586914062	15.18831634521484	-122.9639282226562	687.1468505859375	49.55924224853516	-174.2234497070312	700.2154541015625	5.589565753936768	-12.8793478012085	1545.67236328125	-126.8357620239258	156.6832885742188	1580.147094726562	-31.63861465454102	39.04307556152344	1571.853393554688	-4.879879951477051	137.4877471923828	1553.135498046875	-177.2857666015625	239.1870574951172	918.9470825195312	-194.6072998046875	-52.94912338256836	931.3080444335938	15.25551605224609	69.94384002685547	943.2127075195312	87.00523376464844	273.5105895996094	924.0807495117188	-77.04653167724609	322.8211059570312	442.1822814941406	-99.97062683105469	306.0370483398438	574.783935546875	-116.8834762573242	115.2223358154297	216.48828125	-434.4222717285156	232.3299102783203	314.3668823242188	-274.4496459960938	125.6768341064453	37.25436782836914	-310.8094177246094	79.30542755126953	104.0289154052734	-324.0746459960938	153.5596313476562	100.7917404174805	-397.7737731933594	59.25843048095703	247.646728515625	-414.564697265625	111.8277969360352	453.5338745117188	86.19888305664062	32.39278030395508	708.4263916015625	101.0281829833984	175.5945281982422	48.3369140625	0.3441170752048492	150.87939453125	329.8901672363281	82.76451110839844	304.87158203125	34.72688674926758	139.8044891357422	302.9832763671875	38.79430770874023	57.01123809814453	204.3522033691406	42.83703231811523	77.61212158203125	194.6300811767578	37.82807540893555	-87.41629028320312	383.5345458984375	675.54736328125	-41.8176383972168	
